<?xml version="1.0" encoding="UTF-8"?>
<svg viewBox="0 0 90 180" xmlns="http://www.w3.org/2000/svg">
 <path d="m23.09375,90.6875c-.72895.25636-1.23639.8912-1.59375,1.71875s-.60476,1.8961-.75,3.1875c-.28336,2.51947-.17104,7.63297.15625,13.21875s.90434,11.56747 1.5625,15.71875c.69852,4.40587 1.63247,9.1878 2.5625,13.25s1.8213,7.36521 2.53125,9.03125c.12998.30503.26033.59478.375.8125 .05733.10886.09574.19123.15625.28125 .03026.04501.06719.0951.125.15625s.10292.24993.53125.25c.21846,0 .43547-.14339.53125-.25s.13293-.18567.15625-.25c.04663-.12867.05455-.19615.0625-.28125 .01591-.1702.00981-.36648 0-.59375-.01961-.45454-.09585-1.08698-.1875-1.875-.1833-1.57604-.50761-3.78755-.9375-6.375-2.36148-14.21333-2.75887-18.40428-2.59375-25.9375 .06448-2.94166.23018-7.15902.375-9.34375 .14852-2.24048.20674-5.52867.15625-7.375-.03913-1.43116-.07323-2.25827-.15625-2.875s-.28227-1.07277-.53125-1.40625c-.36012-.48233-.67469-.84853-1.125-1.0625s-.96252-.15605-1.40625,0z" fill="#f4f8fc"/>
 <path d="m46.656 2.5312c-1.6795-0.01353-2.4238 0.15955-3.5625 0.71875-1.5088 0.74094-2.7725 1.9378-4.0312 3.9062s-2.5527 4.718-4.1875 8.75c-1.7626 4.3472-2.4753 5.5748-4.25 7.2812-1.4237 1.3689-2.7239 2.1591-5.5625 3.4375-5.3651 2.4162-7.2635 4.2819-9.5625 9.2812-0.81174 1.7652-1.2612 3.1169-1.2812 4.2812-0.01003 0.58215 0.10491 1.1554 0.4375 1.625s0.888 0.77114 1.4375 0.875c0.2985 0.05642 0.70144 0.06654 1.375 0.125s1.5318 0.14415 2.5625 0.21875c2.0615 0.14921 4.7061 0.3137 7.375 0.46875 1.879 0.10916 7.4619 0.13632 12.562 0.09375 10.616-0.08859 13.522-0.30233 26.438-2 2.266-0.29786 4.9196-0.63711 5.9062-0.75 1.7047-0.19506 3.0393-0.5814 4-1.3125s1.4434-1.9164 1.2812-3.125c-0.05679-0.42353-0.20845-0.8161-0.40625-1.3438s-0.45361-1.1397-0.71875-1.6875c-0.73057-1.5094-1.4778-2.627-2.7812-3.5s-3.0587-1.5122-5.9062-2.4375c-3.2671-1.0616-4.012-1.4746-5.7188-3.0312-2.3207-2.1165-3.938-5.1109-5.2812-10.188-1.037-3.919-1.4155-5.0813-2.2188-6.6875-1.6205-3.2403-4.3343-4.9712-7.9062-5z" fill="#fdbb5a"/>
 <path d="m78.5625,40.1875c-1.15573.03081-2.54319.18863-4.3125.4375-2.31166.32516-6.67636.88142-9.65625,1.1875-3.0084.30901-5.99008.61242-6.875.75-2.50529.38948-10.32295.88267-18.625,1.125-8.48576.2477-14.6217.12545-20.3125-.4375-2.581-.25532-4.57399-.44858-6-.5625s-2.233-.15364-2.78125-.125c-1.59295.08322-3.06179,1.05152-4.09375,2.40625-1.20154,1.57734-2.04001,4.39009-2.28125,6.84375-.16338,1.66173-.07921,3.66036.15625,5.53125s.57392,3.58459 1.15625,4.78125c.17206.35358.32144.67255.59375,1.03125s.7211.67201 1.1875.84375c.93279.34348 2.01903.4152 4.34375.65625 7.53766.78158 10.28321.94871 16.25,1.09375 14.31482.34797 31.32283-.3413 42.03125-1.75 5.85829-.77066 9.29633-1.27212 11.46875-1.71875s3.24413-.89779 3.9375-1.6875c.56968-.64883.97457-1.47055 1.1875-2.4375s.27711-2.09293.28125-3.65625c.00785-2.96014-.39895-5.29087-1.40625-8.375-.67078-2.05377-1.12264-3.49959-2.09375-4.5625s-2.41568-1.42141-4.15625-1.375zm-3.75,15.59375c-.00679.0828.00755.16836 0,.25-.01431.15472-.04558.25624-.0625.40625 .03385-.21503.03558-.4387.0625-.65625z" fill="#fdec66"/>
 <path d="m76.375,63.0625c-.82806.06218-1.81834.22148-3.15625.40625-9.00965,1.24426-11.92062,1.52561-18.46875,1.78125-2.83309.1106-7.03078.32268-9.375.46875-6.49846.40492-26.90637-.04209-32.15625-.6875-.50546-.06214-.91294-.11936-1.3125-.125s-.85908.07811-1.25.34375c-.78183.53127-.97381,1.21837-1.5625,2.4375-2.23152,4.62131-3.54008,11.0318-4.59375,21.75-.32926,3.3493-.39679,6.1149-.375,15.59375 .04754,20.68221.89371,32.1552 3.4375,45.59375 1.47853,7.8109 2.95573,13.13572 5.0625,16.96875s4.90877,6.1194 8.65625,7.65625c1.34525.55169 3.8939.98101 7.15625,1.40625s7.14652.77524 10.71875.9375c9.7629.44347 18.9342-.32022 27.59375-2.34375 5.63725-1.31728 7.97532-2.47569 10.3125-5.09375 1.43506-1.60754 2.3398-3.71956 3.4375-7.71875 1.4965-5.45222 1.99681-8.83253 2.6875-17.875 .19131-2.5047.45483-5.3146.5625-6.125 .13013-.97947.41076-4.04542.625-6.96875 .55765-7.60895.5497-30.53326-.03125-36.5625-.67463-7.0015-2.12469-17.20807-3.28125-23.1875-.35269-1.82334-.76695-4.17219-.90625-5.15625-.10546-.74502-.16884-1.34012-.375-1.90625s-.69718-1.13643-1.3125-1.375-1.26569-.28093-2.09375-.21875zm-52.59375,27.09375c1.30436,0 2.38049.82578 2.75,2.15625 .09118.32832.19432,1.87376.15625,3.84375s-.1657,4.47615-.40625,7.21875c-.64116,7.30999-.75291,11.11122-.46875,15.5625 .46844,7.33813 2.15841,18.88617 4.15625,28.25 .68808,3.22499.99724,5.18394.96875,6.21875-.01425.51741-.09182.77485-.15625.875s-.11509.12815-.375.21875c-.41903.14607-.57218.14092-.40625.15625s.17504.05391-.125-.15625c-.21177-.14833-.4084-.37352-.71875-1.15625s-.665-2.0669-1.15625-4.0625c-.5136-2.0864-1.56348-6.33855-2.34375-9.46875-2.62328-10.52376-3.99373-18.3854-4.78125-27.84375-.65563-7.87438-.75545-11.29368-.46875-14.84375 .23282-2.88287.64654-4.77116 1.1875-5.75s1.02648-1.21875 2.1875-1.21875zm43.03125,14.625c.98935-.00034 1.54551.02581 1.8125.0625-.06244.10523-.17459.32422-.5625.65625-.76288.653-1.65204,1.12147-3.9375,1.71875s-5.89346,1.28096-11.84375,2.3125c-4.14336.71829-8.00239,1.00618-10.75.90625-1.08765-.03956-1.83729-.16909-2.5-.3125 .59829-.07478 1.09573-.16214 2.21875-.21875 6.99783-.35275 10.19868-1.00003 19.40625-3.90625 3.84236-1.21277 3.84967-1.21795 6.15625-1.21875zm3.25,23.5625c.58845-.04872.74923.02443 1.125.21875 .31714.164.39244.31235.40625.34375s.03603-.01406-.03125.125c-.13456.27812-.84224.96656-2.125,1.5-.27885.11596-1.27562.38474-2.5625.625s-2.9183.47304-4.71875.71875c-3.6009.49141-7.8757.96482-11.4375,1.1875-1.92782.12052-5.13387.22346-7.0625.21875-2.06958-.00506-3.34461-.11305-3.875-.25-.15011-.03876-.10063-.01882-.125-.03125 .00704-.02245.01259-.10926 0-.09375-.02589.03188-.05615.01042.125-.03125 .3623-.08333 1.3919-.09035 3.125.0625 4.89715.4319 9.48845-.13508 17.125-2.125l6.84375-1.78125c1.60669-.41731 2.59223-.63822 3.1875-.6875zm2.75,20.40625c.43258.08075.44525.1735.4375.15625s.07106.17725-.15625.65625c-.23269.49038-1.15841,1.25225-2.1875,1.5625-.25372.07649-1.11677.24471-2.21875.40625s-2.50108.32724-4.03125.5c-3.06034.34551-6.6576.69366-9.59375.875-2.40446.1485-5.18693.24619-7.5625.28125-2.0091.02965-3.38937-.03579-4.28125-.09375 .63766-.046 1.27578-.09532 2.03125-.125 8.66813-.34061 13.57086-1.09552 21.8125-3.375 2.83293-.78353 4.89683-1.003 5.75-.84375z" fill="#d6e2f2"/>
 <path d="m20.078 176.38c-6.9342-2.6155-8.7134-8.1541-11.136-14.483-2.2733-8.2732-3.6738-16.751-4.6346-25.269-1.687-12.756-1.3037-25.614-1.4534-38.45 0.02312-6.6524 0.84804-13.16 1.9239-19.626 0.71752-4.4931 2.4148-8.7484 3.4022-13.162-1.7901-0.26493-2.8776-0.5396-3.7807-1.8598-1.1836-1.8612-1.7335-3.9469-2.0391-7.8071 0.1494-3.8104 0.10314-6.7651 2.3548-11.137 1.7358-2.2303 4.59-4.2281 7.4868-3.2251 0.87775-3.3165 1.7665-6.1195 3.51-9.0757 1.7498-3.4042 5.2879-5.7262 8.5254-6.9356 6.8756-2.677 8.5887-7.8319 11.022-14.166 2.3206-6.4042 5.4256-10.841 12.372-10.172 2.8858 0.23636 5.416 1.6678 7.2669 3.9662 3.4065 5.3596 2.583 13.042 7.318 17.631 1.29 1.364 2.6505 2.1952 4.3291 2.7321 1.5855 0.55822 2.7332 1.3065 4.6622 1.7136 3.6971 0.96596 6.5392 4.0456 7.265 7.2009 0.93072 2.0557-0.10551 5.0408 3.0201 4.8262 3.0584-0.13854 4.8839 7.6622 5.7833 11.582 0.81942 3.8458 0.35957 10.518-2.4678 11.564-2.7867 1.6251-4.6214 0.13863-3.4589 4.838 2.6019 14.286 4.8661 28.639 4.787 43.207 0.12201 6.1183-0.28357 12.298-0.48161 18.369 0.02996 3.9605-0.8835 8.2746-0.91871 12.413-1.0129 7.1175-0.86072 14.506-3.007 21.378-0.43788 1.402-0.61672 2.761-1.3076 4.2738-1.032 2.2943-2.339 4.7504-4.6418 6.4031-1.9073 1.38-4.757 2.714-7.6492 3.0723-15.848 4.0412-32.151 3.567-48.052 0.19853zm49.161-2.617c3.3136-0.7916 5.0127-1.8159 7.5204-4.487 1.9609-2.3895 2.5623-5.8626 3.4028-8.9155 2.1949-7.9249 1.7844-16.088 3.0006-24.143 0.70024-10.793 1.3552-21.877 0.63142-32.605 0.20905-8.3542-1.278-16.751-2.3946-24.859-0.5431-4.6219-1.8982-9.0446-2.3118-13.649-0.62663-2.0107-2.7903-0.98126-4.4987-0.94266-3.4792 0.55268-6.672 0.84362-10.015 1.3228-4.657 0.44912-8.646 0.76214-13.247 0.74413-11.43 0.97479-22.919 0.59956-34.357-0.03571-2.1521-0.19629-3.959-0.03725-5.6904-0.58242-5.6983 7.5992-6.9995 30.753-6.2671 45.109 0.00282 7.8333 0.3719 15.969 1.0561 23.492 0.90354 8.6735 2.2529 17.261 4.423 25.714 2.2465 7.3916 4.857 12.628 12.455 15.063 15.172 2.5861 31.324 2.8764 46.292-1.2258zm-38.571-18.388c-1.8808 0.84661-2.6496-2.0647-2.942-3.564-0.97701-2.9424-1.4258-6.4671-2.3507-9.4013-2.7572-10.429-4.8826-21.151-5.4808-31.933-0.54973-4.6414-0.72443-10.545-0.20167-15.787 0.31468-1.8062 0.73141-4.0323 2.2904-4.979 2.5947-1.5301 5.3217 0.61262 5.534 3.1142 0.54272 8.7993-1.858 17.592-0.77139 26.54-0.12455 3.3882 2.1911 19.814 4.3798 29.231 0.75377 2.6609 1.586 6.2762-0.45765 6.7799zm-3.7921-22.146c-1.4476-8.838-2.4161-17.504-1.4724-26.464 0.24307-5.302 0.66561-9.0788 0.23652-13.463-0.13954-1.7265-2.1488-3.4056-3.3465-1.2684-1.2612 2.0748-1.0743 5.158-1.108 7.548 0.13385 10.41 0.50582 18.521 2.892 30.937 0.79 4.9153 3.9271 18.257 4.793 17.217 0.64606-0.54537-1.4631-10.501-1.9946-14.505zm16.802 20.894c-4.9824-0.11426-3.936-2.3706 0.33132-1.9934 7.4608-0.12645 15.084-0.91987 22.272-3.2543 3.408-1.0301 8.2978-2.0198 7.8642 0.29695-0.75655 3.6666-6.3231 3.1322-8.9927 3.7057-7.0686 0.83088-14.346 1.3587-21.475 1.2451zm-2.2229-19.949c-4.0586 0.25431-3.6545-3.1181 0.68608-2.1792 10.185 1.7659 25.619-5.1032 28.88-4.5569 3.6376 1.3418 0.0896 3.7373-2.5982 4.353-8.8628 1.7796-17.928 2.4147-26.968 2.383zm-3.401-23.278c-2.4571-1.0255-0.89745-1.7943 1.4745-1.7441 5.6742-0.18213 11.639-0.88758 16.89-2.729 4.0418-1.0142 7.8268-3.08 11.906-2.6654 3.4994 0.74033-0.67306 3.5555-3.3796 4.2925-5.4728 1.1645-11.194 2.1762-16.631 3.0254-3.351 0.26579-6.9842 0.75039-10.261-0.17935zm5.6238-46.103c7.7545-0.50794 15.617-0.45242 23.256-1.5204 5.3532-0.87479 10.92-1.084 16.135-2.5565 2.4678-1.3632 2.1328-4.6838 2.2723-7.086-0.35505-3.7925-1.2563-7.3596-2.768-10.624-1.3302-2.9413-6.102-1.5951-9.2416-1.1696-5.2102 0.78147-11.078 1.0472-16.97 1.9701-8.7188 0.92766-17.692 0.84961-26.465 1.155-4.4388-0.47533-8.7888-0.20617-13.023-0.93669-1.6834-0.08694-3.7245-0.07932-5.3848-0.4497-2.3508-0.55022-4.4657 1.0984-5.3544 2.7327-1.5173 3.6123-1.9005 5.868-1.5197 10.001 0.34295 2.8222 0.57017 4.889 2.1338 6.8593 9.097 1.0356 18.234 1.8878 27.393 1.7164 3.179-0.01655 6.3582-0.03665 9.5368-0.09186zm1.9303-1.4625c-0.80457-1.6891 0.01745-5.0296 0.05096-8.873 0.14268-2.2672-0.57672-4.5636-0.37001-6.2558 2.0888-1.8995 2.1719 3.0937 2.1643 4.5126-0.17721 1.9246-0.02187 4.027-0.16142 6.4153-0.09057 1.1983 0.67244 4.9899-1.6838 4.2009zm-18.373-0.83494c-0.65695-1.102-0.59641-3.2124-0.70753-5.3625-0.32072-2.4735 1.1839-12.226 3.0216-8.008-1.606 3.5511-1.4421 8.9403-0.82357 12.253 0.41039 1.2514-1.0621 2.4788-1.4905 1.1179zm34.499-7.4803c0.20056-4.5608-1.8185-7.5703-1.3199-8.1816 1.7792-1.5729 2.8375 3.5386 3.0338 5.2125 0.51194 3.5188-0.15121 9.0928-1.2065 10.181-2.5081 1.2386-0.54066-3.9046-0.50745-7.2124zm-49.061 6.327c-1.903-3.1038-0.93867-7.3552-0.33318-10.598 0.50534-1.7891 1.6631-5.5693 3.2153-5.2847 1.2046 0.65386-0.90744 3.2678-1.4286 6.1493-0.65351 2.5181-0.97597 5.9003-0.37852 7.7575 0.64203 1.6878-0.0484 3.224-1.0751 1.9764zm61.085-0.93192c-1.1016-1.6724 0.2905-2.8228 0.38909-5.7796 0.23844-3.4579-0.70628-7.3829-1.5466-9.4985 1.9569-1.2953 2.1282 1.1294 2.6663 2.6139 0.64479 3.1143 1.1355 5.9687 0.58755 9.069-0.22669 0.84783-0.67251 5.0295-2.0963 3.5952zm-34.919-17.602c10.712 0.37337 21.419-1.1514 31.725-2.6226 4.4633-0.0675 8.1583-1.2911 5.305-6.2575-1.4106-4.6198-7.0306-4.9547-11.257-6.6573-5.1943-2.7133-7.5867-7.832-8.7414-13.502-1.2311-4.5436-2.3558-9.517-7.7859-10.375-3.9108-0.89969-7.4392 1.6082-8.985 5.0998-2.1899 3.8081-3.3965 8.0672-5.2209 11.851-2.6325 4.7367-6.648 6.307-10.721 8.0176-2.8961 1.3369-4.5076 3.3191-5.7643 5.4394-1.1895 2.4586-2.372 4.1684-2.4748 6.9171 0.15301 1.9387 3.862 1.0695 5.5843 1.5548 6.1119 0.27632 12.208 0.8668 18.335 0.53545z"/>
</svg>
